<?xml version="1.0" encoding="UTF-8" standalone="no"?>
<!DOCTYPE svg PUBLIC "-//W3C//DTD SVG 1.1//EN" "http://www.w3.org/Graphics/SVG/1.1/DTD/svg11.dtd">
<svg xmlns="http://www.w3.org/2000/svg" version="1.1" viewBox="0.00 0.00 939.00 556.00">
<g stroke-width="0.00" fill="none" stroke-linecap="butt">
<path stroke="#1b1316" vector-effect="non-scaling-stroke" d="
  M 356.54 131.07
  Q 356.53 131.36 356.02 131.41
  Q 355.66 131.44 355.34 131.27
  Q 350.93 128.89 346.77 127.46
  Q 344.78 126.77 343.02 125.47
  Q 342.42 125.02 342.15 124.33
  Q 341.85 123.56 341.05 123.60
  Q 340.54 123.62 340.09 123.40
  Q 338.07 122.40 336.50 121.01
  Q 334.99 119.66 333.25 118.42
  Q 329.76 115.93 326.29 113.28
  C 322.28 110.23 319.27 106.61 316.03 102.73
  Q 314.65 101.08 312.82 102.03
  Q 312.36 102.26 312.17 101.78
  Q 312.04 101.49 312.09 100.92"
/>
<path stroke="#7c1c44" vector-effect="non-scaling-stroke" d="
  M 358.47 131.92
  Q 358.60 133.76 358.17 135.24
  Q 358.03 135.72 357.54 135.81
  Q 356.68 135.96 356.25 136.40"
/>
<path stroke="#7c1c44" vector-effect="non-scaling-stroke" d="
  M 267.53 137.47
  Q 266.61 135.29 267.36 134.36
  Q 267.99 133.58 268.22 132.86"
/>
<path stroke="#89224e" vector-effect="non-scaling-stroke" d="
  M 366.82 135.85
  Q 365.81 136.56 364.69 136.77
  A 0.53 0.53 0.0 0 0 364.43 137.69
  Q 365.63 138.77 365.41 140.03"
/>
<path stroke="#89224e" vector-effect="non-scaling-stroke" d="
  M 354.00 264.97
  Q 337.33 264.77 329.10 265.40
  Q 315.85 266.40 299.76 271.42"
/>
<path stroke="#89224e" vector-effect="non-scaling-stroke" d="
  M 261.53 141.12
  Q 262.35 138.01 260.28 136.28"
/>
<path stroke="#89224e" vector-effect="non-scaling-stroke" d="
  M 360.44 301.04
  Q 359.81 300.86 359.40 301.18
  Q 341.35 315.34 325.75 331.21
  A 0.55 0.55 0.0 0 0 326.08 332.14
  C 331.11 332.68 335.58 330.85 340.50 330.61
  C 344.29 330.41 347.85 329.48 351.61 329.22
  C 356.66 328.86 361.23 327.08 366.27 327.13
  Q 371.44 327.18 372.67 332.34
  Q 373.03 333.84 371.88 334.87
  Q 357.87 347.47 344.42 356.79
  Q 344.32 356.86 344.25 356.75
  L 344.12 356.52
  Q 344.06 356.41 344.07 356.40
  Q 348.14 352.49 351.46 348.41
  Q 351.54 348.31 355.39 343.96
  Q 357.70 341.35 359.40 338.29
  Q 359.68 337.78 359.15 337.56
  Q 357.39 336.81 355.35 336.75
  Q 339.25 336.29 322.05 339.31
  Q 319.09 339.83 317.34 341.76
  Q 306.04 354.23 300.61 369.46
  Q 298.58 375.16 298.42 382.57
  C 298.34 386.25 300.30 388.58 302.74 391.00
  A 1.01 1.01 0.0 0 1 302.19 392.71
  Q 296.11 393.64 291.63 390.35
  C 284.68 385.25 283.40 377.24 286.19 369.50
  Q 290.84 356.62 301.73 342.43
  A 0.97 0.96 46.8 0 0 301.76 341.30
  Q 301.32 340.65 300.53 340.76
  Q 295.83 341.45 290.72 341.64
  C 285.28 341.85 280.37 343.73 274.85 343.06
  A 0.67 0.66 -62.9 0 1 274.48 341.91
  Q 278.81 337.92 284.23 337.36
  C 288.85 336.88 293.41 335.86 298.03 335.48
  Q 303.25 335.05 308.73 333.67
  A 2.24 2.20 12.2 0 0 309.90 332.93
  C 323.82 316.11 338.84 301.14 355.22 285.24
  Q 355.72 284.75 355.77 283.77"
/>
<path stroke="#89224e" vector-effect="non-scaling-stroke" d="
  M 354.22 274.95
  Q 353.85 274.38 353.12 274.40
  Q 349.25 274.50 345.38 274.63
  C 340.54 274.79 335.85 275.62 331.02 275.96
  Q 328.07 276.16 324.78 276.69
  Q 311.08 278.88 298.89 284.13
  C 289.42 288.22 278.84 293.09 271.70 300.51
  C 270.00 302.28 267.43 305.60 267.86 308.25
  Q 268.10 309.71 268.35 311.13
  Q 268.68 312.98 266.81 312.96
  Q 264.71 312.93 263.27 311.76
  Q 259.14 308.41 258.80 301.37"
/>
<path stroke="#89224e" vector-effect="non-scaling-stroke" d="
  M 384.27 348.01
  Q 384.28 348.83 383.88 349.47
  C 378.07 358.62 372.35 367.88 368.86 378.64
  C 368.52 379.68 368.04 380.48 368.80 381.52
  Q 373.34 387.70 378.30 393.18
  Q 379.49 394.49 380.87 393.37
  L 401.84 376.21"
/>
<path stroke="#89224e" vector-effect="non-scaling-stroke" d="
  M 392.71 361.81
  Q 388.10 366.78 384.76 372.97
  A 2.03 1.99 58.0 0 0 384.53 374.02
  L 384.64 375.95
  Q 384.68 376.69 384.14 377.19
  Q 382.77 378.43 383.86 379.63
  A 1.08 1.08 0.0 0 0 385.53 379.54
  Q 389.89 373.56 395.98 369.67
  C 396.66 369.23 396.86 368.77 396.94 368.01"
/>
</g>
<path fill="#281820" d="
  M 356.54 131.07
  Q 356.53 131.36 356.02 131.41
  Q 355.66 131.44 355.34 131.27
  Q 350.93 128.89 346.77 127.46
  Q 344.78 126.77 343.02 125.47
  Q 342.42 125.02 342.15 124.33
  Q 341.85 123.56 341.05 123.60
  Q 340.54 123.62 340.09 123.40
  Q 338.07 122.40 336.50 121.01
  Q 334.99 119.66 333.25 118.42
  Q 329.76 115.93 326.29 113.28
  C 322.28 110.23 319.27 106.61 316.03 102.73
  Q 314.65 101.08 312.82 102.03
  Q 312.36 102.26 312.17 101.78
  Q 312.04 101.49 312.09 100.92
  C 313.98 92.03 304.39 91.66 303.64 84.59
  C 302.31 72.09 319.25 70.28 321.65 81.45
  C 322.13 83.67 321.41 88.92 318.06 88.76
  Q 317.25 88.72 317.67 88.02
  C 319.98 84.17 319.02 79.50 314.76 77.76
  C 311.38 76.38 307.25 77.70 306.62 81.63
  C 306.13 84.62 307.48 87.57 310.08 89.11
  Q 314.87 91.95 315.90 99.09
  Q 316.16 100.92 317.23 102.17
  C 320.97 106.53 325.10 110.63 329.80 114.32
  C 337.96 120.74 346.95 127.06 356.54 131.07
  Z"
/>
<path fill="#0d0d0c" d="
  M 312.09 100.92
  Q 312.04 101.49 312.17 101.78
  Q 312.36 102.26 312.82 102.03
  Q 314.65 101.08 316.03 102.73
  C 319.27 106.61 322.28 110.23 326.29 113.28
  Q 329.76 115.93 333.25 118.42
  Q 334.99 119.66 336.50 121.01
  Q 338.07 122.40 340.09 123.40
  Q 340.54 123.62 341.05 123.60
  Q 341.85 123.56 342.15 124.33
  Q 342.42 125.02 343.02 125.47
  Q 344.78 126.77 346.77 127.46
  Q 350.93 128.89 355.34 131.27
  Q 355.66 131.44 356.02 131.41
  Q 356.53 131.36 356.54 131.07
  L 358.47 131.92
  Q 358.60 133.76 358.17 135.24
  Q 358.03 135.72 357.54 135.81
  Q 356.68 135.96 356.25 136.40
  Q 354.81 134.85 352.59 133.90
  Q 339.57 128.34 327.21 122.23
  Q 320.27 118.79 316.11 118.23
  Q 310.97 117.52 304.00 120.76
  Q 286.25 129.01 267.53 137.47
  Q 266.61 135.29 267.36 134.36
  Q 267.99 133.58 268.22 132.86
  Q 283.99 126.05 296.33 116.07
  Q 303.30 110.44 311.74 101.90
  Q 312.00 101.63 312.05 101.25
  L 312.09 100.92
  Z"
/>
<path fill="#ea2b7b" d="
  M 358.47 131.92
  Q 363.00 133.01 366.82 135.85
  Q 365.81 136.56 364.69 136.77
  A 0.53 0.53 0.0 0 0 364.43 137.69
  Q 365.63 138.77 365.41 140.03
  C 362.84 143.21 363.81 146.77 366.91 148.96
  C 372.07 152.59 375.68 156.97 377.57 163.18
  Q 380.99 174.45 378.97 185.24
  Q 378.21 189.27 377.55 193.29
  C 376.58 199.14 374.28 204.71 372.41 210.35
  Q 371.14 214.16 368.99 218.28
  Q 365.62 224.73 362.23 230.99
  C 357.96 238.85 355.71 247.64 354.17 256.49
  Q 353.82 258.53 354.00 264.97
  Q 337.33 264.77 329.10 265.40
  Q 315.85 266.40 299.76 271.42
  Q 302.66 269.60 305.26 266.50
  C 311.38 259.22 317.62 247.30 316.02 237.63
  Q 314.12 226.13 307.13 218.40
  Q 297.69 207.96 283.57 202.17
  Q 274.74 198.56 266.82 194.21
  C 262.76 191.98 256.88 187.10 256.12 182.26
  C 255.12 175.90 258.24 171.43 262.59 167.24
  Q 263.72 166.16 263.72 164.42
  Q 263.75 156.11 262.36 148.61
  C 261.90 146.14 262.01 143.65 261.53 141.12
  Q 262.35 138.01 260.28 136.28
  C 261.61 134.76 262.49 133.51 264.60 133.15
  Q 266.34 132.84 268.22 132.86
  Q 267.99 133.58 267.36 134.36
  Q 266.61 135.29 267.53 137.47
  Q 268.15 150.76 274.96 163.01
  C 278.16 168.77 284.27 171.95 290.76 172.03
  Q 295.28 172.08 302.70 169.10
  Q 315.75 163.87 325.67 157.42
  C 332.29 153.13 339.56 149.62 347.05 147.73
  C 351.63 146.57 353.32 144.91 355.37 140.70
  Q 356.65 138.10 356.25 136.40
  Q 356.68 135.96 357.54 135.81
  Q 358.03 135.72 358.17 135.24
  Q 358.60 133.76 358.47 131.92
  Z"
/>
<path fill="#281820" d="
  M 366.82 135.85
  Q 371.03 137.44 375.36 140.66
  Q 377.43 142.20 374.93 142.84
  Q 374.19 143.03 372.30 142.33
  Q 368.97 141.10 365.41 140.03
  Q 365.63 138.77 364.43 137.69
  A 0.53 0.53 0.0 0 1 364.69 136.77
  Q 365.81 136.56 366.82 135.85
  Z"
/>
<path fill="#281820" d="
  M 260.28 136.28
  Q 262.35 138.01 261.53 141.12
  L 253.17 142.88
  A 0.62 0.62 0.0 0 1 252.55 141.89
  Q 255.52 138.01 260.28 136.28
  Z"
/>
<path fill="#281820" d="
  M 762.98 324.56
  Q 763.29 328.05 759.47 329.31
  C 757.88 329.83 756.10 329.30 754.43 329.52
  Q 745.57 330.74 736.68 330.53
  A 1.87 1.85 13.6 0 0 734.96 331.57
  C 731.53 338.62 727.23 345.85 722.06 351.72
  C 716.23 358.36 711.23 365.50 704.91 371.57
  C 697.87 378.34 690.71 385.22 682.46 389.86
  C 679.45 391.55 674.95 393.40 671.41 392.80
  Q 663.12 391.42 658.20 384.04
  C 654.80 378.94 652.65 373.95 655.01 368.14
  Q 660.49 354.63 669.69 343.98
  Q 670.08 343.53 669.51 343.72
  Q 669.11 343.85 668.86 344.16
  Q 668.54 344.54 668.10 344.78
  Q 660.20 349.11 654.86 352.87
  Q 637.34 365.18 620.37 378.37
  Q 613.24 383.91 607.02 389.52
  A 0.98 0.97 -46.2 0 1 605.76 389.55
  C 602.56 386.95 599.86 383.22 601.09 378.82
  C 604.75 365.79 612.02 353.94 619.81 343.27
  Q 620.28 342.63 619.53 342.88
  Q 617.56 343.53 615.73 344.84
  C 599.82 356.13 583.92 367.64 569.71 380.68
  Q 569.27 381.08 569.70 381.50
  L 572.24 383.95
  Q 572.73 384.42 572.27 384.92
  Q 568.63 388.94 563.53 391.22
  C 558.18 393.62 553.71 388.80 550.75 385.00
  A 0.78 0.78 0.0 0 1 551.14 383.78
  L 553.56 383.04
  A 1.02 1.02 0.0 0 0 554.08 381.45
  C 552.76 379.68 553.15 378.24 554.14 376.33
  Q 560.93 363.26 567.29 352.04
  Q 568.97 349.06 570.71 345.43
  Q 572.37 341.96 574.31 338.78
  Q 574.54 338.40 574.17 338.17
  L 573.94 338.02
  Q 573.89 337.99 573.85 338.04
  Q 571.54 341.22 569.41 344.19
  Q 568.70 345.17 567.22 344.90
  Q 566.73 344.81 566.27 345.01
  Q 564.45 345.81 562.98 347.22
  Q 548.63 361.00 535.19 375.24
  Q 528.60 382.21 522.75 389.96
  A 0.73 0.73 0.0 0 1 521.71 390.09
  C 513.57 383.60 513.80 375.59 518.29 367.19
  Q 521.84 360.56 526.75 352.99
  Q 537.99 335.70 551.58 317.15
  Q 569.04 293.30 588.54 266.97
  Q 589.20 266.08 589.92 265.33
  Q 591.25 263.94 589.34 264.20
  Q 588.39 264.33 587.71 265.07
  Q 584.82 268.17 582.40 271.27
  Q 580.73 273.41 578.57 275.34
  Q 578.19 275.68 578.00 276.15
  Q 577.11 278.36 575.54 279.19
  Q 574.26 279.87 575.13 278.71
  L 589.22 259.70
  A 1.92 1.92 0.0 0 1 591.45 259.05
  Q 600.22 262.39 605.10 271.00
  A 1.84 1.83 -39.2 0 1 604.88 273.11
  Q 570.83 311.96 536.15 354.15
  Q 530.44 361.10 525.05 368.14
  Q 523.31 370.43 526.01 369.45
  Q 527.80 368.80 530.29 366.80
  Q 559.28 343.50 584.51 318.00
  Q 585.75 316.75 586.72 315.24
  A 1.78 1.77 -61.1 0 1 588.95 314.59
  C 593.31 316.60 597.72 318.97 600.63 322.83
  A 1.06 1.04 -51.4 0 1 600.74 323.91
  Q 600.13 325.22 599.30 326.40
  Q 588.50 341.59 578.28 355.98
  Q 577.11 357.61 577.45 359.56
  A 1.09 1.07 -30.3 0 1 577.22 360.42
  Q 576.28 361.55 575.17 362.50
  Q 573.62 363.82 575.66 363.64
  Q 575.98 363.61 576.98 362.91
  Q 587.47 355.69 598.13 348.72
  C 603.63 345.12 610.71 336.78 617.71 336.87
  C 624.51 336.95 627.76 332.67 630.93 327.33
  Q 631.27 326.76 631.22 326.09
  C 631.01 323.26 631.20 317.91 633.30 315.70
  Q 633.67 315.31 634.21 315.39
  C 638.75 316.14 652.63 323.79 647.94 329.05
  Q 634.77 343.85 623.97 362.58
  Q 623.37 363.62 624.54 363.34
  C 627.44 362.64 628.85 360.44 631.16 358.89
  Q 634.92 356.38 638.93 354.12
  Q 647.11 349.50 654.30 344.23
  Q 655.49 343.35 656.84 342.84
  Q 662.65 340.66 668.87 338.56
  C 671.72 337.60 673.44 339.54 675.72 337.30
  Q 690.69 322.61 710.41 313.26
  C 714.40 311.37 718.99 315.99 721.35 318.74
  A 5.77 5.73 -13.5 0 0 724.44 320.62
  Q 725.29 320.82 726.19 320.62
  Q 727.31 320.36 726.59 319.47
  L 724.36 316.73
  A 0.98 0.98 0.0 0 1 724.77 315.20
  C 731.34 312.68 736.10 316.53 736.78 323.03
  Q 736.87 323.90 737.74 323.95
  Q 745.32 324.40 753.75 325.02
  Q 758.47 325.37 762.98 324.56
  Z
  M 715.40 328.33
  L 715.36 327.50
  Q 715.27 325.39 713.18 325.66
  Q 708.75 326.23 705.65 328.89
  C 693.48 339.32 681.82 350.20 672.37 363.26
  C 668.40 368.75 664.88 375.23 663.26 381.86
  Q 662.71 384.09 664.42 385.20
  C 667.49 387.20 669.42 385.77 671.85 384.08
  Q 685.91 374.32 693.28 365.93
  Q 703.34 354.48 713.77 342.86
  C 717.25 338.99 719.65 334.55 723.32 330.94
  A 0.63 0.63 0.0 0 0 722.95 329.87
  L 716.17 329.15
  Q 715.43 329.07 715.40 328.33
  Z"
/>
<path fill="#281820" d="
  M 360.44 301.04
  Q 359.81 300.86 359.40 301.18
  Q 341.35 315.34 325.75 331.21
  A 0.55 0.55 0.0 0 0 326.08 332.14
  C 331.11 332.68 335.58 330.85 340.50 330.61
  C 344.29 330.41 347.85 329.48 351.61 329.22
  C 356.66 328.86 361.23 327.08 366.27 327.13
  Q 371.44 327.18 372.67 332.34
  Q 373.03 333.84 371.88 334.87
  Q 357.87 347.47 344.42 356.79
  Q 344.32 356.86 344.25 356.75
  L 344.12 356.52
  Q 344.06 356.41 344.07 356.40
  Q 348.14 352.49 351.46 348.41
  Q 351.54 348.31 355.39 343.96
  Q 357.70 341.35 359.40 338.29
  Q 359.68 337.78 359.15 337.56
  Q 357.39 336.81 355.35 336.75
  Q 339.25 336.29 322.05 339.31
  Q 319.09 339.83 317.34 341.76
  Q 306.04 354.23 300.61 369.46
  Q 298.58 375.16 298.42 382.57
  C 298.34 386.25 300.30 388.58 302.74 391.00
  A 1.01 1.01 0.0 0 1 302.19 392.71
  Q 296.11 393.64 291.63 390.35
  C 284.68 385.25 283.40 377.24 286.19 369.50
  Q 290.84 356.62 301.73 342.43
  A 0.97 0.96 46.8 0 0 301.76 341.30
  Q 301.32 340.65 300.53 340.76
  Q 295.83 341.45 290.72 341.64
  C 285.28 341.85 280.37 343.73 274.85 343.06
  A 0.67 0.66 -62.9 0 1 274.48 341.91
  Q 278.81 337.92 284.23 337.36
  C 288.85 336.88 293.41 335.86 298.03 335.48
  Q 303.25 335.05 308.73 333.67
  A 2.24 2.20 12.2 0 0 309.90 332.93
  C 323.82 316.11 338.84 301.14 355.22 285.24
  Q 355.72 284.75 355.77 283.77
  Q 355.88 283.82 355.98 283.93
  Q 356.11 284.08 356.25 283.93
  L 364.19 275.84
  Q 365.22 274.79 363.75 274.76
  Q 359.22 274.67 355.00 274.57
  Q 354.62 274.56 354.22 274.95
  Q 353.85 274.38 353.12 274.40
  Q 349.25 274.50 345.38 274.63
  C 340.54 274.79 335.85 275.62 331.02 275.96
  Q 328.07 276.16 324.78 276.69
  Q 311.08 278.88 298.89 284.13
  C 289.42 288.22 278.84 293.09 271.70 300.51
  C 270.00 302.28 267.43 305.60 267.86 308.25
  Q 268.10 309.71 268.35 311.13
  Q 268.68 312.98 266.81 312.96
  Q 264.71 312.93 263.27 311.76
  Q 259.14 308.41 258.80 301.37
  Q 260.68 287.96 273.18 282.23
  Q 282.32 278.04 291.48 274.02
  Q 295.02 272.47 299.76 271.42
  Q 315.85 266.40 329.10 265.40
  Q 337.33 264.77 354.00 264.97
  L 379.74 268.09
  Q 380.36 268.16 379.98 267.68
  Q 379.31 266.81 379.32 265.78
  Q 379.32 265.16 379.93 265.05
  C 384.88 264.16 394.94 264.26 398.13 268.70
  A 3.46 3.43 -14.7 0 0 400.58 270.12
  Q 413.10 271.42 426.13 270.95
  C 433.61 270.68 441.44 269.39 449.12 269.30
  A 0.45 0.45 0.0 0 1 449.51 269.97
  C 444.60 278.38 434.26 280.49 425.41 281.01
  Q 408.40 282.00 390.06 279.75
  Q 388.08 279.51 385.34 281.55
  Q 372.67 290.98 361.43 299.93
  Q 360.91 300.35 360.44 301.04
  Z"
/>
<path fill="#ea2b7b" d="
  M 354.22 274.95
  L 355.77 283.77
  Q 355.72 284.75 355.22 285.24
  C 338.84 301.14 323.82 316.11 309.90 332.93
  A 2.24 2.20 12.2 0 1 308.73 333.67
  Q 303.25 335.05 298.03 335.48
  C 293.41 335.86 288.85 336.88 284.23 337.36
  Q 278.81 337.92 274.48 341.91
  A 0.67 0.66 -62.9 0 0 274.85 343.06
  C 280.37 343.73 285.28 341.85 290.72 341.64
  Q 295.83 341.45 300.53 340.76
  Q 301.32 340.65 301.76 341.30
  A 0.97 0.96 46.8 0 1 301.73 342.43
  Q 290.84 356.62 286.19 369.50
  C 283.40 377.24 284.68 385.25 291.63 390.35
  Q 296.11 393.64 302.19 392.71
  A 1.01 1.01 0.0 0 0 302.74 391.00
  C 300.30 388.58 298.34 386.25 298.42 382.57
  Q 298.58 375.16 300.61 369.46
  Q 306.04 354.23 317.34 341.76
  Q 319.09 339.83 322.05 339.31
  Q 339.25 336.29 355.35 336.75
  Q 357.39 336.81 359.15 337.56
  Q 359.68 337.78 359.40 338.29
  Q 357.70 341.35 355.39 343.96
  Q 351.54 348.31 351.46 348.41
  Q 348.14 352.49 344.07 356.40
  Q 344.06 356.41 344.12 356.52
  L 344.25 356.75
  Q 344.32 356.86 344.42 356.79
  Q 357.87 347.47 371.88 334.87
  Q 373.03 333.84 372.67 332.34
  Q 371.44 327.18 366.27 327.13
  C 361.23 327.08 356.66 328.86 351.61 329.22
  C 347.85 329.48 344.29 330.41 340.50 330.61
  C 335.58 330.85 331.11 332.68 326.08 332.14
  A 0.55 0.55 0.0 0 1 325.75 331.21
  Q 341.35 315.34 359.40 301.18
  Q 359.81 300.86 360.44 301.04
  Q 361.87 305.00 363.54 308.90
  Q 372.00 328.65 383.48 346.82
  Q 383.86 347.43 384.27 348.01
  Q 384.28 348.83 383.88 349.47
  C 378.07 358.62 372.35 367.88 368.86 378.64
  C 368.52 379.68 368.04 380.48 368.80 381.52
  Q 373.34 387.70 378.30 393.18
  Q 379.49 394.49 380.87 393.37
  L 401.84 376.21
  Q 409.81 388.77 411.94 392.57
  C 420.49 407.83 421.35 426.09 418.83 443.97
  Q 418.40 447.05 414.27 455.45
  C 410.11 463.93 402.51 473.85 392.19 471.38
  C 388.50 470.49 386.84 465.81 385.85 462.40
  Q 384.13 456.46 382.06 450.62
  C 376.09 433.78 364.48 421.28 347.57 415.34
  Q 342.53 413.57 337.89 413.52
  Q 335.61 413.50 337.28 415.06
  Q 338.96 416.61 340.67 417.73
  C 351.52 424.80 358.84 436.17 362.12 448.45
  Q 363.16 452.35 363.06 456.28
  Q 362.98 459.38 361.64 456.58
  Q 359.16 451.41 356.43 446.32
  Q 355.37 444.33 351.41 440.07
  Q 348.51 436.97 345.26 435.50
  Q 339.24 432.78 333.50 432.17
  Q 323.23 431.07 313.66 432.81
  Q 298.37 435.60 282.31 441.57
  Q 265.55 447.80 243.53 456.95
  Q 225.21 464.57 205.77 467.73
  Q 195.76 469.36 187.06 466.20
  C 177.76 462.82 171.54 451.72 167.62 442.40
  Q 162.29 429.74 156.90 417.16
  C 155.63 414.19 158.87 411.15 161.59 409.06
  C 176.81 397.39 192.49 388.35 208.95 379.95
  Q 215.78 376.47 221.25 372.76
  A 0.41 0.41 0.0 0 0 221.16 372.03
  Q 220.73 371.87 220.27 371.96
  C 213.21 373.39 207.65 375.37 200.64 377.89
  Q 182.45 384.44 165.83 394.00
  Q 158.46 398.24 153.28 403.07
  C 141.76 413.83 141.08 430.87 144.32 445.35
  Q 146.94 457.09 151.13 469.32
  Q 151.85 471.44 150.33 469.80
  Q 147.22 466.44 144.98 462.65
  Q 136.60 448.49 129.26 431.89
  Q 123.59 419.08 124.05 403.35
  Q 124.39 391.63 128.41 383.30
  Q 133.38 372.99 142.54 365.09
  C 158.27 351.54 176.07 342.21 195.99 332.80
  C 213.86 324.35 231.84 315.57 249.51 307.25
  Q 254.37 304.97 258.80 301.37
  Q 259.14 308.41 263.27 311.76
  Q 264.71 312.93 266.81 312.96
  Q 268.68 312.98 268.35 311.13
  Q 268.10 309.71 267.86 308.25
  C 267.43 305.60 270.00 302.28 271.70 300.51
  C 278.84 293.09 289.42 288.22 298.89 284.13
  Q 311.08 278.88 324.78 276.69
  Q 328.07 276.16 331.02 275.96
  C 335.85 275.62 340.54 274.79 345.38 274.63
  Q 349.25 274.50 353.12 274.40
  Q 353.85 274.38 354.22 274.95
  Z"
/>
<path fill="#281820" d="
  M 653.68 306.10
  C 649.59 308.93 643.58 300.26 642.89 296.99
  Q 642.57 295.47 644.13 295.41
  Q 647.26 295.29 650.07 295.30
  C 654.45 295.31 660.04 289.28 662.51 297.01
  Q 662.69 297.58 662.31 298.05
  Q 658.25 302.94 653.68 306.10
  Z"
/>
<path fill="#281820" d="
  M 762.98 324.56
  Q 763.64 322.34 764.42 321.22
  Q 767.41 316.95 770.16 312.66
  A 2.20 2.19 28.1 0 1 772.90 311.83
  Q 778.99 314.49 783.10 319.56
  Q 784.10 320.80 783.20 322.10
  Q 779.05 328.08 774.45 333.47
  Q 764.63 344.97 755.04 355.82
  Q 754.71 356.19 754.65 356.68
  Q 754.56 357.39 755.17 357.01
  Q 756.69 356.08 757.82 355.18
  Q 774.56 341.80 789.91 329.78
  C 796.18 324.87 803.41 318.97 810.65 314.98
  Q 811.82 314.34 812.92 315.24
  Q 818.63 319.92 821.44 325.91
  Q 821.73 326.51 821.27 327.00
  C 808.48 340.44 796.23 353.68 785.60 368.27
  Q 785.36 368.59 785.32 368.99
  A 0.49 0.49 0.0 0 0 785.98 369.49
  L 789.86 368.06
  Q 790.33 367.89 790.81 368.04
  Q 791.90 368.37 792.88 367.72
  Q 801.43 362.02 809.34 356.55
  C 812.65 354.26 815.78 350.88 819.54 349.96
  Q 823.31 349.04 827.32 347.12
  Q 828.65 346.48 829.97 346.92
  A 0.45 0.44 30.7 0 1 830.16 347.64
  Q 826.83 351.17 822.12 353.79
  Q 816.16 357.11 805.45 366.19
  Q 791.95 377.63 779.52 389.48
  A 1.61 1.61 0.0 0 1 777.22 389.39
  Q 775.24 387.22 774.77 384.51
  Q 773.75 378.50 775.08 373.48
  Q 775.23 372.91 774.74 372.60
  L 773.31 371.69
  A 2.09 2.09 0.0 0 1 772.52 369.09
  Q 776.11 360.88 781.50 353.48
  Q 790.73 340.83 800.79 328.44
  Q 801.75 327.26 800.24 327.50
  Q 799.65 327.60 799.21 327.99
  C 780.39 344.63 762.09 361.18 745.43 378.97
  Q 740.36 384.39 736.67 390.14
  A 1.50 1.50 0.0 0 1 734.40 390.43
  Q 726.78 383.38 731.77 374.14
  C 739.57 359.70 749.15 346.49 758.73 333.05
  C 760.62 330.39 763.39 328.48 764.12 324.93
  Q 764.20 324.55 763.84 324.38
  Q 763.52 324.22 762.98 324.56
  Z"
/>
<path fill="#281820" d="
  M 518.57 346.38
  Q 517.95 346.37 517.55 346.84
  C 513.73 351.21 503.45 361.27 497.75 359.19
  A 0.56 0.55 -52.7 0 1 497.62 358.22
  Q 508.84 350.00 516.72 337.45
  Q 518.58 334.49 519.70 331.57
  A 2.12 2.11 -61.7 0 0 518.96 329.09
  Q 516.02 327.01 512.30 327.69
  Q 497.58 330.36 486.04 338.11
  Q 482.54 340.47 480.43 343.91
  Q 477.63 348.45 480.78 353.29
  Q 486.78 362.53 492.43 371.56
  C 494.39 374.70 498.72 381.85 498.14 385.00
  C 497.44 388.73 490.01 395.17 487.26 397.26
  C 481.99 401.28 467.23 390.72 462.88 387.24
  Q 456.14 381.84 454.74 374.35
  A 0.85 0.84 -2.2 0 1 455.67 373.35
  Q 457.16 373.52 458.17 374.71
  C 460.43 377.38 462.80 379.39 466.09 380.76
  C 472.21 383.33 480.97 385.92 487.50 384.72
  Q 488.87 384.47 488.48 383.13
  Q 486.70 377.11 482.41 372.26
  Q 475.87 364.87 469.96 357.45
  C 467.28 354.09 464.55 350.17 464.16 345.81
  C 463.53 338.69 467.66 333.25 472.76 328.90
  Q 478.60 323.91 485.02 319.32
  Q 486.75 318.08 488.74 317.41
  Q 499.73 313.71 511.25 313.90
  Q 515.03 313.96 519.13 316.93
  C 521.75 318.83 522.91 324.51 523.57 327.57
  Q 523.71 328.19 524.32 328.02
  Q 525.03 327.82 525.81 328.00
  Q 526.27 328.11 526.48 328.53
  Q 528.68 332.95 528.04 335.85
  Q 526.32 343.55 519.45 349.75
  Q 518.71 350.42 517.91 349.81
  L 517.61 349.57
  A 0.42 0.41 36.4 0 1 517.52 349.02
  L 518.91 347.02
  Q 519.35 346.38 518.57 346.38
  Z"
/>
<path fill="#281820" d="
  M 392.71 361.81
  Q 388.10 366.78 384.76 372.97
  A 2.03 1.99 58.0 0 0 384.53 374.02
  L 384.64 375.95
  Q 384.68 376.69 384.14 377.19
  Q 382.77 378.43 383.86 379.63
  A 1.08 1.08 0.0 0 0 385.53 379.54
  Q 389.89 373.56 395.98 369.67
  C 396.66 369.23 396.86 368.77 396.94 368.01
  Q 397.23 368.02 397.55 367.96
  Q 397.83 367.91 398.09 367.70
  Q 408.28 359.37 419.21 352.20
  C 419.96 351.71 420.76 350.74 420.85 349.82
  Q 421.38 344.92 426.45 344.56
  C 429.56 344.33 434.04 347.19 436.55 349.15
  A 1.61 1.61 0.0 0 1 437.06 351.01
  Q 435.86 354.09 435.42 356.90
  Q 434.31 364.11 433.92 371.98
  Q 433.76 375.31 434.37 378.43
  C 435.09 382.11 438.70 383.81 442.05 382.50
  Q 444.86 381.40 447.58 380.01
  Q 450.94 378.29 448.73 381.36
  C 444.25 387.59 434.71 394.43 427.43 386.96
  C 422.20 381.60 420.40 372.92 420.07 365.49
  Q 420.02 364.36 420.49 363.30
  A 0.63 0.63 0.0 0 0 419.82 362.41
  Q 418.02 362.68 416.65 363.87
  Q 409.44 370.18 401.84 376.21
  L 380.87 393.37
  Q 379.49 394.49 378.30 393.18
  Q 373.34 387.70 368.80 381.52
  C 368.04 380.48 368.52 379.68 368.86 378.64
  C 372.35 367.88 378.07 358.62 383.88 349.47
  Q 384.28 348.83 384.27 348.01
  L 384.54 348.14
  Q 384.94 348.34 385.11 347.94
  C 385.58 346.86 386.11 345.77 386.83 344.84
  Q 396.94 331.79 406.67 319.92
  Q 408.72 317.43 413.54 315.33
  Q 414.06 315.10 414.62 315.21
  C 425.82 317.39 438.50 325.34 439.93 337.75
  Q 440.00 338.37 439.38 338.40
  Q 438.64 338.43 438.33 337.75
  Q 435.12 330.62 429.97 328.43
  Q 424.63 326.16 420.00 330.51
  Q 404.79 344.80 392.71 361.81
  Z"
/>
<path fill="#ea2b7b" d="
  M 392.71 361.81
  Q 394.55 365.59 396.94 368.01
  C 396.86 368.77 396.66 369.23 395.98 369.67
  Q 389.89 373.56 385.53 379.54
  A 1.08 1.08 0.0 0 1 383.86 379.63
  Q 382.77 378.43 384.14 377.19
  Q 384.68 376.69 384.64 375.95
  L 384.53 374.02
  A 2.03 1.99 58.0 0 1 384.76 372.97
  Q 388.10 366.78 392.71 361.81
  Z"
/>
</svg>
