<?xml version="1.0" encoding="UTF-8" standalone="no"?>
<!DOCTYPE svg PUBLIC "-//W3C//DTD SVG 1.1//EN" "http://www.w3.org/Graphics/SVG/1.1/DTD/svg11.dtd">
<svg xmlns="http://www.w3.org/2000/svg" version="1.1" viewBox="0.00 0.00 340.00 450.00">
<g stroke-width="0.00" fill="none" stroke-linecap="butt">
<path stroke="#7c1c44" vector-effect="non-scaling-stroke" d="
  M 252.68 76.74
  Q 251.79 77.42 252.13 78.87
  A 1.06 1.06 0.0 0 1 251.41 80.12
  Q 249.40 80.72 250.09 81.26"
/>
<path stroke="#7c1c44" vector-effect="non-scaling-stroke" d="
  M 161.11 82.18
  Q 160.13 79.90 161.84 77.58"
/>
<path stroke="#7c1c44" vector-effect="non-scaling-stroke" d="
  M 259.68 80.06
  Q 258.38 82.29 258.95 84.71"
/>
<path stroke="#e12272" vector-effect="non-scaling-stroke" d="
  M 312.64 357.48
  L 312.44 358.20
  A 0.35 0.35 0.0 0 1 311.76 358.19
  Q 310.36 352.32 307.84 346.28
  Q 303.85 336.69 294.02 321.97
  Q 290.49 316.67 287.31 311.89
  Q 285.31 308.86 283.55 305.67
  Q 281.86 302.60 279.50 299.71
  Q 277.51 297.27 276.04 294.11
  C 275.21 292.33 273.81 290.99 272.77 289.41
  Q 265.96 278.98 261.03 268.59
  Q 260.82 268.15 260.82 267.66
  Q 260.83 267.32 260.64 267.03
  Q 258.86 264.22 257.38 260.95
  Q 254.19 253.88 251.62 247.15
  Q 249.54 241.69 247.11 228.95
  Q 246.92 227.93 246.16 227.24
  Q 245.93 227.02 245.82 226.71
  Q 245.02 224.25 245.13 221.83
  Q 245.18 220.75 244.97 219.68
  Q 244.78 218.68 244.60 217.59
  Q 244.37 216.13 244.50 214.61
  Q 244.97 208.98 244.61 202.17
  Q 244.45 199.00 246.33 194.03
  Q 247.28 191.53 247.59 188.42
  C 247.76 186.76 248.64 185.59 248.70 183.84
  Q 248.72 183.30 248.18 183.23
  L 245.15 182.79
  Q 244.55 182.70 244.26 183.24
  Q 241.59 188.19 238.34 192.25
  C 237.25 193.60 235.45 194.04 235.01 195.90
  C 234.17 199.52 234.64 203.28 233.26 206.72
  Q 231.05 212.22 231.23 215.98
  C 231.49 221.60 230.94 227.60 232.11 233.13
  Q 233.39 239.19 234.34 245.44
  C 235.05 250.08 238.41 254.23 240.23 258.58
  C 241.59 261.82 242.73 265.26 244.52 268.14
  Q 245.81 270.21 247.07 272.45
  C 248.01 274.11 249.56 275.28 250.55 276.95
  Q 252.64 280.49 255.36 283.23
  Q 257.49 285.38 258.87 287.95
  Q 260.73 291.43 263.72 294.44
  Q 266.51 297.25 269.24 300.84
  Q 272.29 304.86 274.84 308.40
  Q 277.71 312.38 280.56 315.97
  Q 284.99 321.55 289.37 326.98
  C 291.13 329.16 292.42 331.50 293.86 333.89
  Q 295.45 336.52 297.31 338.96
  Q 301.02 343.83 302.27 346.76
  Q 303.94 350.69 306.34 355.28
  C 307.95 358.38 309.67 362.15 309.96 365.60
  Q 310.38 370.51 311.09 375.36
  Q 311.64 379.02 311.30 385.74
  Q 311.27 386.23 310.97 386.63
  Q 309.99 387.94 310.13 389.60
  Q 310.14 389.68 310.09 389.61
  Q 310.08 389.60 310.07 389.60
  Q 310.05 389.59 310.05 389.56
  Q 310.37 387.30 312.85 386.18"
/>
<path stroke="#e12272" vector-effect="non-scaling-stroke" d="
  M 19.93 367.99
  Q 21.47 362.67 21.82 358.00
  Q 22.23 352.50 23.17 347.05
  C 24.47 339.49 28.26 331.96 32.47 325.97
  C 34.14 323.59 36.38 321.64 38.22 319.39
  Q 40.04 317.16 42.55 315.03
  Q 47.65 310.69 51.84 307.59
  Q 55.85 304.62 60.90 302.05
  Q 65.82 299.54 69.90 297.01
  Q 75.21 293.73 82.15 291.10
  C 87.60 289.04 92.42 285.90 97.97 283.87
  Q 102.36 282.26 106.54 280.28
  Q 114.16 276.66 123.24 273.43
  Q 123.83 273.22 123.97 272.64
  Q 124.07 272.27 124.39 272.06
  L 127.40 270.15
  Q 127.87 269.85 127.87 269.29
  L 127.86 267.12
  Q 127.86 266.87 128.12 266.87
  L 128.44 266.87
  Q 128.97 266.87 129.09 267.38
  Q 129.17 267.69 129.07 268.02
  Q 128.94 268.47 129.40 268.52
  Q 129.63 268.54 129.93 268.39
  Q 130.30 268.21 130.19 267.82
  L 129.05 263.57
  A 0.68 0.67 66.7 0 0 128.05 263.17
  Q 124.14 265.51 119.41 266.29
  Q 119.20 266.33 119.05 266.47
  Q 118.89 266.62 118.77 266.80
  A 1.40 1.38 -83.9 0 1 118.13 267.32
  Q 98.73 275.39 90.34 279.70
  Q 83.42 283.25 75.90 286.74
  Q 73.83 287.71 71.72 288.66
  Q 66.61 290.98 62.55 293.56
  Q 54.89 298.43 54.68 298.57
  Q 50.07 301.49 46.07 304.61
  Q 44.30 305.99 39.01 309.91
  Q 35.53 312.50 32.26 315.65
  Q 29.38 318.42 27.16 322.05
  Q 25.10 325.41 23.07 329.11
  Q 21.20 332.53 19.27 342.08
  Q 19.24 342.27 19.06 342.21
  Q 18.93 342.17 18.80 342.16
  Q 18.44 342.14 18.33 341.79
  Q 18.28 341.62 18.18 341.42"
/>
<path stroke="#7c1c44" vector-effect="non-scaling-stroke" d="
  M 155.19 85.59
  Q 155.37 83.91 154.98 82.29
  Q 154.86 81.76 154.33 81.73
  L 152.54 81.60"
/>
</g>
<path fill="#0d0d0d" d="
  M 252.68 76.74
  Q 251.79 77.42 252.13 78.87
  A 1.06 1.06 0.0 0 1 251.41 80.12
  Q 249.40 80.72 250.09 81.26
  Q 248.70 79.59 246.91 78.82
  Q 231.72 72.28 218.57 65.85
  Q 213.09 63.17 209.74 62.93
  Q 203.91 62.51 200.24 64.21
  Q 180.98 73.15 161.11 82.18
  Q 160.13 79.90 161.84 77.58
  Q 185.70 67.12 203.64 48.17
  Q 206.00 45.67 206.02 44.00
  C 206.09 39.80 203.28 37.22 200.43 34.69
  C 193.04 28.11 199.09 16.17 209.08 19.17
  Q 214.22 20.71 215.32 26.31
  C 215.77 28.61 214.93 32.80 212.19 33.61
  A 0.67 0.66 -83.0 0 1 211.43 32.63
  Q 212.24 31.26 212.39 29.71
  Q 213.09 22.50 205.82 21.95
  Q 203.94 21.81 202.30 22.92
  C 198.53 25.48 200.23 31.49 203.51 33.62
  C 207.39 36.15 208.91 39.43 209.62 43.93
  Q 209.90 45.69 211.09 47.08
  Q 215.97 52.79 221.54 57.38
  C 230.92 65.10 241.32 72.35 252.68 76.74
  Z"
/>
<path fill="#ea2b7b" d="
  M 252.68 76.74
  Q 256.47 77.62 259.68 80.06
  Q 258.38 82.29 258.95 84.71
  Q 257.20 87.12 257.77 89.66
  C 258.47 92.84 262.37 94.82 264.65 96.95
  C 273.41 105.16 274.67 120.97 272.26 131.95
  C 271.42 135.78 271.14 139.42 269.97 143.26
  Q 266.55 154.49 263.98 160.05
  Q 260.76 167.00 256.81 173.94
  Q 253.18 180.30 250.92 187.73
  Q 248.22 196.64 247.78 203.26
  Q 246.56 221.99 252.04 239.79
  Q 256.73 255.01 265.65 271.75
  C 276.71 292.51 290.31 312.66 303.05 332.93
  Q 310.24 344.36 312.64 357.48
  L 312.44 358.20
  A 0.35 0.35 0.0 0 1 311.76 358.19
  Q 310.36 352.32 307.84 346.28
  Q 303.85 336.69 294.02 321.97
  Q 290.49 316.67 287.31 311.89
  Q 285.31 308.86 283.55 305.67
  Q 281.86 302.60 279.50 299.71
  Q 277.51 297.27 276.04 294.11
  C 275.21 292.33 273.81 290.99 272.77 289.41
  Q 265.96 278.98 261.03 268.59
  Q 260.82 268.15 260.82 267.66
  Q 260.83 267.32 260.64 267.03
  Q 258.86 264.22 257.38 260.95
  Q 254.19 253.88 251.62 247.15
  Q 249.54 241.69 247.11 228.95
  Q 246.92 227.93 246.16 227.24
  Q 245.93 227.02 245.82 226.71
  Q 245.02 224.25 245.13 221.83
  Q 245.18 220.75 244.97 219.68
  Q 244.78 218.68 244.60 217.59
  Q 244.37 216.13 244.50 214.61
  Q 244.97 208.98 244.61 202.17
  Q 244.45 199.00 246.33 194.03
  Q 247.28 191.53 247.59 188.42
  C 247.76 186.76 248.64 185.59 248.70 183.84
  Q 248.72 183.30 248.18 183.23
  L 245.15 182.79
  Q 244.55 182.70 244.26 183.24
  Q 241.59 188.19 238.34 192.25
  C 237.25 193.60 235.45 194.04 235.01 195.90
  C 234.17 199.52 234.64 203.28 233.26 206.72
  Q 231.05 212.22 231.23 215.98
  C 231.49 221.60 230.94 227.60 232.11 233.13
  Q 233.39 239.19 234.34 245.44
  C 235.05 250.08 238.41 254.23 240.23 258.58
  C 241.59 261.82 242.73 265.26 244.52 268.14
  Q 245.81 270.21 247.07 272.45
  C 248.01 274.11 249.56 275.28 250.55 276.95
  Q 252.64 280.49 255.36 283.23
  Q 257.49 285.38 258.87 287.95
  Q 260.73 291.43 263.72 294.44
  Q 266.51 297.25 269.24 300.84
  Q 272.29 304.86 274.84 308.40
  Q 277.71 312.38 280.56 315.97
  Q 284.99 321.55 289.37 326.98
  C 291.13 329.16 292.42 331.50 293.86 333.89
  Q 295.45 336.52 297.31 338.96
  Q 301.02 343.83 302.27 346.76
  Q 303.94 350.69 306.34 355.28
  C 307.95 358.38 309.67 362.15 309.96 365.60
  Q 310.38 370.51 311.09 375.36
  Q 311.64 379.02 311.30 385.74
  Q 311.27 386.23 310.97 386.63
  Q 309.99 387.94 310.13 389.60
  Q 310.14 389.68 310.09 389.61
  Q 310.08 389.60 310.07 389.60
  Q 310.05 389.59 310.05 389.56
  Q 310.37 387.30 312.85 386.18
  C 312.53 391.01 309.93 395.68 307.96 399.98
  Q 303.92 408.82 296.69 414.07
  Q 291.80 417.63 285.60 415.93
  C 282.07 414.96 280.31 409.92 279.43 406.79
  Q 276.90 397.68 273.86 390.70
  Q 264.07 368.23 241.59 360.11
  Q 237.00 358.45 231.98 358.08
  Q 229.12 357.87 231.23 359.82
  C 234.26 362.62 237.88 364.60 240.87 367.49
  Q 251.98 378.22 255.97 394.07
  Q 256.87 397.65 256.70 401.54
  Q 256.59 403.90 255.56 401.78
  Q 253.39 397.35 251.21 392.97
  Q 249.52 389.59 245.27 384.91
  C 240.07 379.18 231.50 376.87 224.10 376.54
  Q 213.89 376.07 205.52 377.75
  Q 189.97 380.87 174.50 386.68
  Q 160.36 391.98 146.58 397.83
  C 134.44 402.98 123.10 406.98 110.35 410.31
  Q 107.90 410.95 100.53 412.23
  C 92.23 413.67 82.10 413.15 75.28 407.82
  C 68.91 402.85 64.32 394.35 61.13 386.66
  Q 55.38 372.83 50.49 361.75
  C 49.17 358.78 52.97 355.68 54.87 354.14
  C 70.49 341.49 87.35 332.43 107.04 322.26
  C 109.50 320.98 112.05 319.32 114.32 317.67
  Q 116.38 316.18 113.88 316.62
  C 107.47 317.75 101.56 319.95 95.51 322.10
  Q 76.49 328.86 59.71 338.52
  C 48.21 345.14 39.04 353.14 37.02 367.02
  Q 35.80 375.43 36.73 383.26
  Q 37.02 385.69 38.66 392.95
  C 40.33 400.30 42.65 407.56 44.86 414.60
  Q 45.14 415.47 44.49 414.83
  Q 41.72 412.03 40.56 410.22
  Q 31.22 395.63 22.74 375.99
  Q 20.84 371.59 19.93 367.99
  Q 21.47 362.67 21.82 358.00
  Q 22.23 352.50 23.17 347.05
  C 24.47 339.49 28.26 331.96 32.47 325.97
  C 34.14 323.59 36.38 321.64 38.22 319.39
  Q 40.04 317.16 42.55 315.03
  Q 47.65 310.69 51.84 307.59
  Q 55.85 304.62 60.90 302.05
  Q 65.82 299.54 69.90 297.01
  Q 75.21 293.73 82.15 291.10
  C 87.60 289.04 92.42 285.90 97.97 283.87
  Q 102.36 282.26 106.54 280.28
  Q 114.16 276.66 123.24 273.43
  Q 123.83 273.22 123.97 272.64
  Q 124.07 272.27 124.39 272.06
  L 127.40 270.15
  Q 127.87 269.85 127.87 269.29
  L 127.86 267.12
  Q 127.86 266.87 128.12 266.87
  L 128.44 266.87
  Q 128.97 266.87 129.09 267.38
  Q 129.17 267.69 129.07 268.02
  Q 128.94 268.47 129.40 268.52
  Q 129.63 268.54 129.93 268.39
  Q 130.30 268.21 130.19 267.82
  L 129.05 263.57
  A 0.68 0.67 66.7 0 0 128.05 263.17
  Q 124.14 265.51 119.41 266.29
  Q 119.20 266.33 119.05 266.47
  Q 118.89 266.62 118.77 266.80
  A 1.40 1.38 -83.9 0 1 118.13 267.32
  Q 98.73 275.39 90.34 279.70
  Q 83.42 283.25 75.90 286.74
  Q 73.83 287.71 71.72 288.66
  Q 66.61 290.98 62.55 293.56
  Q 54.89 298.43 54.68 298.57
  Q 50.07 301.49 46.07 304.61
  Q 44.30 305.99 39.01 309.91
  Q 35.53 312.50 32.26 315.65
  Q 29.38 318.42 27.16 322.05
  Q 25.10 325.41 23.07 329.11
  Q 21.20 332.53 19.27 342.08
  Q 19.24 342.27 19.06 342.21
  Q 18.93 342.17 18.80 342.16
  Q 18.44 342.14 18.33 341.79
  Q 18.28 341.62 18.18 341.42
  Q 20.22 326.84 28.79 317.26
  C 39.95 304.79 55.22 295.02 69.56 287.54
  Q 83.37 280.33 98.31 273.29
  Q 116.07 264.93 142.66 251.96
  Q 159.77 243.61 176.52 231.84
  C 186.07 225.12 194.91 217.10 201.58 207.67
  C 206.39 200.87 210.80 191.21 209.74 182.89
  C 207.24 163.44 191.04 152.45 174.44 145.59
  C 166.57 142.33 150.52 135.79 149.63 125.94
  C 149.14 120.57 151.87 116.03 155.76 112.40
  Q 157.48 110.79 157.42 108.43
  C 157.30 104.22 157.10 100.13 156.41 95.88
  Q 155.61 90.85 155.19 85.59
  Q 155.37 83.91 154.98 82.29
  Q 154.86 81.76 154.33 81.73
  L 152.54 81.60
  Q 154.21 80.62 155.67 79.28
  Q 157.21 77.87 158.45 77.64
  Q 160.00 77.36 161.84 77.58
  Q 160.13 79.90 161.11 82.18
  Q 162.01 96.66 169.04 108.45
  C 173.47 115.89 183.48 118.22 191.48 115.49
  Q 206.45 110.38 219.60 101.89
  Q 224.28 98.87 229.00 96.64
  Q 234.38 94.10 239.99 92.61
  Q 244.08 91.53 246.24 89.57
  Q 249.60 86.53 250.09 81.26
  Q 249.40 80.72 251.41 80.12
  A 1.06 1.06 0.0 0 0 252.13 78.87
  Q 251.79 77.42 252.68 76.74
  Z"
/>
<path fill="#0d0d0d" d="
  M 259.68 80.06
  Q 264.39 81.92 268.70 85.07
  Q 271.13 86.85 268.24 87.67
  Q 268.09 87.71 266.55 87.15
  Q 262.87 85.81 258.95 84.71
  Q 258.38 82.29 259.68 80.06
  Z"
/>
<path fill="#0d0d0d" d="
  M 152.54 81.60
  L 154.33 81.73
  Q 154.86 81.76 154.98 82.29
  Q 155.37 83.91 155.19 85.59
  L 147.98 87.75
  A 1.21 1.20 9.2 0 1 146.64 85.90
  C 147.89 84.14 150.56 82.43 152.54 81.60
  Z"
/>
<path fill="#d71968" d="
  M 312.64 357.48
  Q 314.66 372.00 312.85 386.18
  Q 310.37 387.30 310.05 389.56
  Q 310.05 389.59 310.07 389.60
  Q 310.08 389.60 310.09 389.61
  Q 310.14 389.68 310.13 389.60
  Q 309.99 387.94 310.97 386.63
  Q 311.27 386.23 311.30 385.74
  Q 311.64 379.02 311.09 375.36
  Q 310.38 370.51 309.96 365.60
  C 309.67 362.15 307.95 358.38 306.34 355.28
  Q 303.94 350.69 302.27 346.76
  Q 301.02 343.83 297.31 338.96
  Q 295.45 336.52 293.86 333.89
  C 292.42 331.50 291.13 329.16 289.37 326.98
  Q 284.99 321.55 280.56 315.97
  Q 277.71 312.38 274.84 308.40
  Q 272.29 304.86 269.24 300.84
  Q 266.51 297.25 263.72 294.44
  Q 260.73 291.43 258.87 287.95
  Q 257.49 285.38 255.36 283.23
  Q 252.64 280.49 250.55 276.95
  C 249.56 275.28 248.01 274.11 247.07 272.45
  Q 245.81 270.21 244.52 268.14
  C 242.73 265.26 241.59 261.82 240.23 258.58
  C 238.41 254.23 235.05 250.08 234.34 245.44
  Q 233.39 239.19 232.11 233.13
  C 230.94 227.60 231.49 221.60 231.23 215.98
  Q 231.05 212.22 233.26 206.72
  C 234.64 203.28 234.17 199.52 235.01 195.90
  C 235.45 194.04 237.25 193.60 238.34 192.25
  Q 241.59 188.19 244.26 183.24
  Q 244.55 182.70 245.15 182.79
  L 248.18 183.23
  Q 248.72 183.30 248.70 183.84
  C 248.64 185.59 247.76 186.76 247.59 188.42
  Q 247.28 191.53 246.33 194.03
  Q 244.45 199.00 244.61 202.17
  Q 244.97 208.98 244.50 214.61
  Q 244.37 216.13 244.60 217.59
  Q 244.78 218.68 244.97 219.68
  Q 245.18 220.75 245.13 221.83
  Q 245.02 224.25 245.82 226.71
  Q 245.93 227.02 246.16 227.24
  Q 246.92 227.93 247.11 228.95
  Q 249.54 241.69 251.62 247.15
  Q 254.19 253.88 257.38 260.95
  Q 258.86 264.22 260.64 267.03
  Q 260.83 267.32 260.82 267.66
  Q 260.82 268.15 261.03 268.59
  Q 265.96 278.98 272.77 289.41
  C 273.81 290.99 275.21 292.33 276.04 294.11
  Q 277.51 297.27 279.50 299.71
  Q 281.86 302.60 283.55 305.67
  Q 285.31 308.86 287.31 311.89
  Q 290.49 316.67 294.02 321.97
  Q 303.85 336.69 307.84 346.28
  Q 310.36 352.32 311.76 358.19
  A 0.35 0.35 0.0 0 0 312.44 358.20
  L 312.64 357.48
  Z"
/>
<path fill="#d71968" d="
  M 19.93 367.99
  Q 16.56 355.15 18.18 341.42
  Q 18.28 341.62 18.33 341.79
  Q 18.44 342.14 18.80 342.16
  Q 18.93 342.17 19.06 342.21
  Q 19.24 342.27 19.27 342.08
  Q 21.20 332.53 23.07 329.11
  Q 25.10 325.41 27.16 322.05
  Q 29.38 318.42 32.26 315.65
  Q 35.53 312.50 39.01 309.91
  Q 44.30 305.99 46.07 304.61
  Q 50.07 301.49 54.68 298.57
  Q 54.89 298.43 62.55 293.56
  Q 66.61 290.98 71.72 288.66
  Q 73.83 287.71 75.90 286.74
  Q 83.42 283.25 90.34 279.70
  Q 98.73 275.39 118.13 267.32
  A 1.40 1.38 -83.9 0 0 118.77 266.80
  Q 118.89 266.62 119.05 266.47
  Q 119.20 266.33 119.41 266.29
  Q 124.14 265.51 128.05 263.17
  A 0.68 0.67 66.7 0 1 129.05 263.57
  L 130.19 267.82
  Q 130.30 268.21 129.93 268.39
  Q 129.63 268.54 129.40 268.52
  Q 128.94 268.47 129.07 268.02
  Q 129.17 267.69 129.09 267.38
  Q 128.97 266.87 128.44 266.87
  L 128.12 266.87
  Q 127.86 266.87 127.86 267.12
  L 127.87 269.29
  Q 127.87 269.85 127.40 270.15
  L 124.39 272.06
  Q 124.07 272.27 123.97 272.64
  Q 123.83 273.22 123.24 273.43
  Q 114.16 276.66 106.54 280.28
  Q 102.36 282.26 97.97 283.87
  C 92.42 285.90 87.60 289.04 82.15 291.10
  Q 75.21 293.73 69.90 297.01
  Q 65.82 299.54 60.90 302.05
  Q 55.85 304.62 51.84 307.59
  Q 47.65 310.69 42.55 315.03
  Q 40.04 317.16 38.22 319.39
  C 36.38 321.64 34.14 323.59 32.47 325.97
  C 28.26 331.96 24.47 339.49 23.17 347.05
  Q 22.23 352.50 21.82 358.00
  Q 21.47 362.67 19.93 367.99
  Z"
/>
</svg>
